<svg xmlns="http://www.w3.org/2000/svg"
     viewBox="-3.000 -3.000 56.000 26.000"
     width="96" height="96">
  <path d="M 0.0000 6.0000 L 7.0000 6.0000 A 4.5000 4.5000 0.0 0 1 16.0000 6.0000 A 4.5000 4.5000 0.0 0 1 25.0000 6.0000 A 4.5000 4.5000 0.0 0 1 34.0000 6.0000 A 4.5000 4.5000 0.0 0 1 43.0000 6.0000 L 50.0000 6.0000 L 50.0000 14.0000 L 43.0000 14.0000 A 4.5000 4.5000 0.0 0 1 34.0000 14.0000 A 4.5000 4.5000 0.0 0 1 25.0000 14.0000 A 4.5000 4.5000 0.0 0 1 16.0000 14.0000 A 4.5000 4.5000 0.0 0 1 7.0000 14.0000 L 0.0000 14.0000 Z Z M 50.0000 0.0000 L 50.0000 20.0000 M 0.0000 0.0000 L 0.0000 20.0000" fill="white" stroke="#141414" stroke-width="2.00"/>
</svg>