<svg xmlns="http://www.w3.org/2000/svg"
     viewBox="-3.000 -3.000 107.880 74.000"
     width="96" height="96">
  <path d="M 7.9400 26.0000 L 93.9400 26.0000 A 40.0000 40.0000 0.0 0 1 93.9400 68.0000 L 7.9400 68.0000 A 40.0000 40.0000 0.0 0 1 7.9400 26.0000 Z" fill="white" stroke="#141414" stroke-width="2.00"/>
  <rect x="8.1400" y="26.0000" width="85.4000" height="42.0000" fill="none" stroke="#141414" stroke-width="2.00"/>
  <ellipse cx="36.9400" cy="19.0000" rx="4.0000" ry="4.0000" fill="none" stroke="#141414" stroke-width="2.00"/>
  <ellipse cx="67.4400" cy="16.0000" rx="8.0000" ry="8.0000" fill="none" stroke="#141414" stroke-width="2.00"/>
  <path d="M 36.0700 15.1000 L 65.2900 8.4200 M 36.9700 23.1400 L 67.2900 24.0700 M 17.4400 26.0000 L 17.4400 21.5000 M 12.9400 21.5000 L 17.4400 16.5000 M 17.4400 0.0000 L 17.4400 16.5000 M 13.9400 8.4000 L 21.1400 14.7000 M 14.9400 5.7000 L 20.6400 10.5000 M 15.5400 3.0000 L 19.9400 7.0000 M 88.4400 26.0000 L 88.4400 22.5000" stroke="#141414" stroke-width="2.00" fill="none"/>
  <path d="M 12.9400 12.0000 L 22.4400 21.5000 L 12.9400 21.5000 Z M 85.4400 12.0000 L 91.4400 12.0000 L 85.4400 22.5000 L 91.4400 22.5000 Z" fill="none" stroke="#141414" stroke-width="2.00"/>
</svg>