<svg xmlns="http://www.w3.org/2000/svg"
     viewBox="-3.000 -3.000 96.000 86.560"
     width="96" height="96">
  <path d="M 39.0000 74.5600 L 35.0000 80.5600 L 55.0000 80.5600 L 51.0000 74.5600 M 20.0000 5.5600 L 20.0000 70.5600 A 9.0000 5.0000 0.0 0 1 0.0000 70.5600 L 0.0000 5.5600 A 9.0000 5.0000 0.0 0 1 20.0000 5.5600 Z M 70.0000 5.5600 L 70.0000 70.5600 A 9.0000 5.0000 0.0 0 0 90.0000 70.5600 L 90.0000 5.5600 A 9.0000 5.0000 0.0 0 0 70.0000 5.5600 Z" fill="none" stroke="#141414" stroke-width="2.00"/>
  <path d="M 55.0000 35.5600 L 55.0000 70.5600 A 9.0000 5.0000 0.0 0 1 35.0000 70.5600 L 35.0000 35.5600 A 9.0000 5.0000 0.0 0 1 55.0000 35.5600 Z" fill="none" stroke="#141414" stroke-width="2.00"/>
  <ellipse cx="45.0000" cy="43.5600" rx="8.0000" ry="8.0000" stroke="#141414" stroke-width="2.00" fill="none"/>
  <ellipse cx="45.0000" cy="63.5600" rx="8.0000" ry="8.0000" stroke="#141414" stroke-width="2.00" fill="none"/>
  <rect x="0.0000" y="0.0000" width="10.0000" height="10.0000" stroke="#141414" stroke-width="2.00" fill="none"/>
  <path d="M 20.0000 53.5600 L 35.0000 53.5600 M 55.0000 53.5600 L 70.0000 53.5600" stroke="#141414" stroke-width="2.00" fill="none"/>
  <path d="M 27.5000 45.5600 L 27.5000 61.5600 M 62.5000 45.5600 L 62.5000 61.5600" stroke="#141414" stroke-width="4.00" fill="none"/>
</svg>