<svg xmlns="http://www.w3.org/2000/svg"
     viewBox="-3.000 -3.000 96.000 96.000"
     width="96" height="96">
  <ellipse cx="45.0000" cy="45.0000" rx="45.0000" ry="45.0000" fill="white" stroke="#141414" stroke-width="2.00"/>
  <rect x="0.0000" y="0.0000" width="10.0000" height="10.0000" stroke="#141414" stroke-width="2.00" fill="none"/>
  <path d="M 45.0000 5.0000 A 30.0000 30.0000 0.0 0 1 45.0000 45.0000 A 30.0000 30.0000 0.0 0 0 45.0000 85.0000 M 73.3000 16.7000 A 30.0000 30.0000 0.0 0 1 45.0000 45.0000 A 30.0000 30.0000 0.0 0 0 16.7000 73.3000 M 85.0000 45.0000 A 30.0000 30.0000 0.0 0 1 45.0000 45.0000 A 30.0000 30.0000 0.0 0 0 5.0000 45.0000 M 73.3000 73.3000 A 30.0000 30.0000 0.0 0 1 45.0000 45.0000 A 30.0000 30.0000 0.0 0 0 16.5000 16.5000" stroke="#141414" stroke-width="2.00" fill="none"/>
  <rect x="0.0000" y="0.0000" width="10.0000" height="10.0000" stroke="#141414" stroke-width="2.00" fill="none"/>
  <ellipse cx="45.0000" cy="45.0000" rx="3.0000" ry="3.0000" fill="white" stroke="#141414" stroke-width="2.00"/>
</svg>