<?xml version="1.0" encoding="UTF-8"?>
<!-- Do not edit this file with editors other than draw.io -->
<!DOCTYPE svg PUBLIC "-//W3C//DTD SVG 1.1//EN" "http://www.w3.org/Graphics/SVG/1.1/DTD/svg11.dtd">
<svg xmlns="http://www.w3.org/2000/svg" style="background: transparent; background-color: transparent; " xmlns:xlink="http://www.w3.org/1999/xlink" version="1.1" width="71px" height="68px" viewBox="0 0 71 68" content="&lt;mxfile host=&quot;Electron&quot; agent=&quot;Mozilla/5.0 (Windows NT 10.0; Win64; x64) AppleWebKit/537.36 (KHTML, like Gecko) draw.io/29.6.6 Chrome/144.0.7559.236 Electron/40.8.4 Safari/537.36&quot; version=&quot;29.6.6&quot;&gt;&#10;  &lt;diagram name=&quot;Page-1&quot; id=&quot;KoF04IBD5nGJ-qoLNlYf&quot;&gt;&#10;    &lt;mxGraphModel dx=&quot;856&quot; dy=&quot;946&quot; grid=&quot;1&quot; gridSize=&quot;10&quot; guides=&quot;1&quot; tooltips=&quot;1&quot; connect=&quot;1&quot; arrows=&quot;1&quot; fold=&quot;1&quot; page=&quot;1&quot; pageScale=&quot;1&quot; pageWidth=&quot;850&quot; pageHeight=&quot;1100&quot; math=&quot;0&quot; shadow=&quot;0&quot;&gt;&#10;      &lt;root&gt;&#10;        &lt;mxCell id=&quot;0&quot; /&gt;&#10;        &lt;mxCell id=&quot;1&quot; parent=&quot;0&quot; /&gt;&#10;        &lt;mxCell id=&quot;2Zdqz3lLYbPKSC03os5W-10&quot; parent=&quot;1&quot; style=&quot;shape=mxgraph.pid.pumps.centrifugal_pump_1;html=1;pointerEvents=1;align=center;verticalLabelPosition=bottom;verticalAlign=top;dashed=0;&quot; value=&quot;&quot; vertex=&quot;1&quot;&gt;&#10;          &lt;mxGeometry height=&quot;67&quot; width=&quot;70&quot; x=&quot;390&quot; y=&quot;450&quot; as=&quot;geometry&quot; /&gt;&#10;        &lt;/mxCell&gt;&#10;      &lt;/root&gt;&#10;    &lt;/mxGraphModel&gt;&#10;  &lt;/diagram&gt;&#10;&lt;/mxfile&gt;&#10;"><defs/><g><g data-cell-id="0"><g data-cell-id="1"><g data-cell-id="2Zdqz3lLYbPKSC03os5W-10"><g transform="translate(0.5,0.5)"><rect x="0" y="0" width="70" height="67" fill="none" stroke="none" pointer-events="all"/><path d="M 12 54 L 0 67 L 60 67 L 48 54" fill="#ffffff" stroke="#000000" stroke-miterlimit="10" pointer-events="all" style="fill: #ffffff); stroke: #000000, rgb(255, 255, 255));"/><path d="M 0.6 25 C 3.03 10.63 15.43 0.09 30 0 L 70 0 L 70 20 L 58.45 20 C 62.26 30.7 59.71 42.63 51.86 50.83 C 44 59.03 32.19 62.09 21.34 58.74 C 10.49 55.39 2.46 46.2 0.6 35" fill="#ffffff" stroke="#000000" stroke-miterlimit="10" pointer-events="all" style="fill: #ffffff); stroke: #000000, rgb(255, 255, 255));"/><path d="M 21.4 25 C 23.66 21.08 28.28 19.17 32.65 20.34 C 37.02 21.51 40.06 25.47 40.06 30 C 40.06 34.53 37.02 38.49 32.65 39.66 C 28.28 40.83 23.66 38.92 21.4 35" fill="none" stroke="#000000" stroke-miterlimit="10" pointer-events="all" style="stroke: #000000, rgb(255, 255, 255));"/></g></g></g></g></g></svg>