<svg xmlns="http://www.w3.org/2000/svg"
     viewBox="-3.000 -3.000 129.770 41.000"
     width="96" height="96">
  <path d="M 87.0000 0.0000 A 20.0000 20.0000 0.0 0 0 87.0000 30.0000 L 117.0000 30.0000 A 20.0000 20.0000 0.0 0 0 117.0000 0.0000 Z M 75.0000 15.0000 L 80.0000 15.0000 M 15.0000 25.0000 L 15.0000 35.0000 M 60.0000 25.0000 L 60.0000 35.0000" fill="white" stroke="#141414" stroke-width="2.00"/>
  <rect x="0.0000" y="5.0000" width="75.0000" height="20.0000" fill="none" stroke="#141414" stroke-width="2.00"/>
  <path d="M 4.5000 15.0000 A 6.0000 10.0000 0.0 0 1 15.5000 15.0000 A 6.0000 10.0000 0.0 0 0 26.5000 15.0000 A 6.0000 10.0000 0.0 0 1 37.5000 15.0000 A 6.0000 10.0000 0.0 0 0 48.5000 15.0000 A 6.0000 10.0000 0.0 0 1 59.5000 15.0000 A 6.0000 10.0000 0.0 0 0 70.5000 15.0000 M 87.0000 0.0000 L 87.0000 30.0000 M 117.0000 0.0000 L 117.0000 30.0000" stroke="#141414" stroke-width="2.00" fill="none"/>
</svg>