<svg xmlns="http://www.w3.org/2000/svg"
     viewBox="-3.000 -3.000 161.270 117.770"
     width="96" height="96">
  <path d="M 8.5000 15.0000 A 20.0000 20.0000 0.0 0 1 38.5000 15.0000 L 38.5000 105.0000 A 20.0000 20.0000 0.0 0 1 8.5000 105.0000 Z M 148.5000 45.0000 A 20.0000 20.0000 0.0 0 1 148.5000 75.0000 L 58.5000 75.0000 A 20.0000 20.0000 0.0 0 1 58.5000 45.0000 Z M 58.5000 45.0000 L 58.5000 75.0000 M 148.5000 45.0000 L 148.5000 75.0000 M 23.5000 8.5000 L 23.5000 0.0000 M 13.5000 0.0000 L 33.5000 0.0000 M 0.0000 60.0000 L 8.5000 60.0000 M 0.0000 50.0000 L 0.0000 70.0000" fill="none" stroke="#141414" stroke-width="2.00"/>
  <rect x="38.5000" y="58.0000" width="13.5000" height="4.0000" fill="none" stroke="#141414" stroke-width="2.00"/>
</svg>