<svg xmlns="http://www.w3.org/2000/svg"
     viewBox="-3.000 -3.000 109.540 192.770"
     width="96" height="96">
  <path d="M 96.7700 156.7700 A 20.0000 20.0000 0.0 0 1 96.7700 186.7700 L 6.7700 186.7700 A 20.0000 20.0000 0.0 0 1 6.7700 156.7700 Z M 36.7700 6.7700 A 20.0000 20.0000 0.0 0 1 66.7700 6.7700 L 66.7700 36.7700 A 20.0000 20.0000 0.0 0 1 36.7700 36.7700 Z M 76.7700 148.2700 L 96.7700 148.2700 M 86.7700 148.2700 L 86.7700 156.7700 M 36.7700 36.7700 L 66.7700 36.7700 M 36.7700 6.7700 L 66.7700 6.7700" fill="none" stroke="#141414" stroke-width="2.00"/>
  <rect x="49.7700" y="43.2700" width="4.0000" height="113.5000" fill="none" stroke="#141414" stroke-width="2.00"/>
  <rect x="16.7700" y="75.7700" width="70.0000" height="14.0000" fill="none" stroke="#141414" stroke-width="2.00"/>
  <path d="M 16.7700 82.7700 L 86.7700 82.7700" stroke="#141414" stroke-width="2.00" fill="none"/>
</svg>