<svg xmlns="http://www.w3.org/2000/svg"
     viewBox="-3.000 -3.000 105.000 55.940"
     width="96" height="96">
  <path d="M 0.0000 22.9700 L 14.5000 22.9700 L 14.5000 14.9700 L 26.6000 14.9700 A 25.0000 25.0000 0.0 0 1 72.4000 14.9700 L 84.5000 14.9700 L 84.5000 22.9700 L 99.0000 22.9700 L 99.0000 26.9700 L 84.5000 26.9700 L 84.5000 34.9700 L 72.4000 34.9700 A 25.0000 25.0000 0.0 0 1 26.6000 34.9700 L 14.5000 34.9700 L 14.5000 26.9700 L 0.0000 26.9700 Z" fill="white" stroke="#141414" stroke-width="2.00"/>
  <path d="M 14.5000 22.9700 L 14.5000 26.9700 M 84.5000 22.9700 L 84.5000 26.9700 M 26.6000 34.9700 A 25.0000 25.0000 0.0 0 1 26.6000 14.9700 M 72.4000 14.9700 A 25.0000 25.0000 0.0 0 1 72.4000 34.9700" stroke="#141414" stroke-width="2.00" fill="none"/>
</svg>