<svg xmlns="http://www.w3.org/2000/svg"
     viewBox="-3.000 -3.000 126.000 152.770"
     width="96" height="96">
  <path d="M 45.0000 6.7700 A 20.0000 20.0000 0.0 0 1 75.0000 6.7700 L 75.0000 96.7700 A 20.0000 20.0000 0.0 0 1 45.0000 96.7700 Z M 105.0000 116.7700 A 20.0000 20.0000 0.0 0 1 105.0000 146.7700 L 15.0000 146.7700 A 20.0000 20.0000 0.0 0 1 15.0000 116.7700 Z M 111.5000 131.7700 L 120.0000 131.7700 M 120.0000 121.7700 L 120.0000 141.7700 M 0.0000 131.7700 L 8.5000 131.7700 M 0.0000 121.7700 L 0.0000 141.7700 M 45.0000 96.7700 L 75.0000 96.7700 M 45.0000 6.7700 L 75.0000 6.7700" fill="white" stroke="#141414" stroke-width="2.00"/>
  <rect x="58.0000" y="103.2700" width="4.0000" height="13.5000" fill="none" stroke="#141414" stroke-width="2.00"/>
</svg>