<svg xmlns="http://www.w3.org/2000/svg"
     viewBox="-3.000 -3.000 106.000 106.000"
     width="96" height="96">
  <ellipse cx="50.0000" cy="50.0000" rx="50.0000" ry="50.0000" fill="white" stroke="#141414" stroke-width="2.00"/>
  <path d="M 25.0000 7.0000 L 95.0000 28.0000 M 25.0000 93.0000 L 95.0000 72.0000" stroke="#141414" stroke-width="2.00" fill="none"/>
  <ellipse cx="65.0000" cy="50.0000" rx="15.0000" ry="3.0000" stroke="#141414" stroke-width="2.00" fill="none"/>
  <path d="M 42.2800 36.5500 A 15.0000 3.0000 49.48 0 1 49.7500 49.9000 A 15.0000 3.0000 49.48 0 1 37.7200 40.4500 A 15.0000 3.0000 49.48 0 1 30.2500 27.1000 A 15.0000 3.0000 49.48 0 1 42.2800 36.5500 Z M 37.7000 59.7300 A 15.0000 3.0000 -49.91 0 1 49.6600 50.1900 A 15.0000 3.0000 -49.91 0 1 42.3000 63.6000 A 15.0000 3.0000 -49.91 0 1 30.3400 73.1400 A 15.0000 3.0000 -49.91 0 1 37.7000 59.7300 Z" stroke="#141414" stroke-width="2.00" fill="none"/>
</svg>