<svg xmlns="http://www.w3.org/2000/svg"
     viewBox="-3.000 -3.000 146.000 106.000"
     width="96" height="96">
  <rect x="60.0000" y="0.0000" width="80.0000" height="100.0000" fill="white" stroke="#141414" stroke-width="2.00"/>
  <rect x="0.0000" y="15.0000" width="40.0000" height="70.0000" fill="none" stroke="#141414" stroke-width="2.00"/>
  <rect x="70.0000" y="17.5000" width="60.0000" height="15.0000" stroke="#141414" stroke-width="2.00" fill="none"/>
  <rect x="70.0000" y="42.5000" width="60.0000" height="15.0000" stroke="#141414" stroke-width="2.00" fill="none"/>
  <rect x="70.0000" y="67.5000" width="60.0000" height="15.0000" stroke="#141414" stroke-width="2.00" fill="none"/>
  <path d="M 40.0000 25.0000 L 70.0000 25.0000 M 40.0000 50.0000 L 70.0000 50.0000 M 40.0000 75.0000 L 70.0000 75.0000 M 85.0000 17.5000 L 85.0000 32.5000 M 100.0000 17.5000 L 100.0000 32.5000 M 115.0000 17.5000 L 115.0000 32.5000 M 85.0000 42.5000 L 85.0000 57.5000 M 100.0000 42.5000 L 100.0000 57.5000 M 115.0000 42.5000 L 115.0000 57.5000 M 85.0000 67.5000 L 85.0000 82.5000 M 100.0000 67.5000 L 100.0000 82.5000 M 115.0000 67.5000 L 115.0000 82.5000 M 25.0000 40.0000 L 15.0000 40.0000 L 15.0000 60.0000 L 25.0000 60.0000 M 15.0000 50.0000 L 22.0000 50.0000" stroke="#141414" stroke-width="2.00" fill="none"/>
</svg>