<svg xmlns="http://www.w3.org/2000/svg"
     viewBox="-3.000 -3.000 97.750 36.000"
     width="96" height="96">
  <path d="M 5.0000 6.0000 L 15.0000 6.0000 L 15.0000 0.0000 L 20.0000 0.0000 L 20.0000 6.0000 L 70.0000 6.0000 L 70.0000 0.0000 L 75.0000 0.0000 L 75.0000 6.0000 L 85.0000 6.0000 A 6.0000 8.0000 0.0 0 1 85.0000 24.0000 L 75.0000 24.0000 L 75.0000 30.0000 L 70.0000 30.0000 L 70.0000 24.0000 L 20.0000 24.0000 L 20.0000 30.0000 L 15.0000 30.0000 L 15.0000 24.0000 L 5.0000 24.0000 L 0.0000 23.0000 L 0.0000 20.0000 L 5.0000 19.0000 L 83.0000 19.0000 A 3.5000 4.0000 0.0 0 0 83.0000 11.0000 L 5.0000 11.0000 L 0.0000 10.0000 L 0.0000 7.0000 Z" fill="white" stroke="#141414" stroke-width="2.00"/>
  <path d="M 5.0000 3.0000 L 5.0000 14.0000 M 5.0000 16.0000 L 5.0000 27.0000 M 15.0000 6.0000 L 20.0000 6.0000 M 70.0000 6.0000 L 75.0000 6.0000 M 75.0000 24.0000 L 70.0000 24.0000 M 20.0000 24.0000 L 15.0000 24.0000" stroke="#141414" stroke-width="2.00" fill="none"/>
  <path d="M 2.0000 8.0000 L 2.0000 9.5000 M 3.0000 7.0000 L 3.0000 9.0000 M 2.0000 21.0000 L 2.0000 22.5000 M 3.0000 20.0000 L 3.0000 22.0000" stroke="#141414" stroke-width="1.00" fill="none"/>
</svg>