<svg xmlns="http://www.w3.org/2000/svg"
     viewBox="-3.000 -3.000 106.000 126.000"
     width="96" height="96">
  <rect x="5.0000" y="0.0000" width="90.0000" height="120.0000" fill="white" stroke="#141414" stroke-width="2.00"/>
  <path d="M 15.0000 0.0000 L 15.0000 120.0000 M 25.0000 0.0000 L 25.0000 120.0000 M 35.0000 0.0000 L 35.0000 120.0000 M 45.0000 0.0000 L 45.0000 120.0000 M 55.0000 0.0000 L 55.0000 120.0000 M 65.0000 0.0000 L 65.0000 120.0000 M 75.0000 0.0000 L 75.0000 120.0000 M 85.0000 0.0000 L 85.0000 120.0000 M 0.0000 3.0000 L 0.0000 11.0000 M 0.0000 109.0000 L 0.0000 117.0000 M 100.0000 3.0000 L 100.0000 11.0000 M 100.0000 109.0000 L 100.0000 117.0000 M 0.0000 7.0000 L 5.0000 7.0000 L 95.0000 113.0000 L 100.0000 113.0000 M 0.0000 113.0000 L 5.0000 113.0000 L 95.0000 7.0000 L 100.0000 7.0000" stroke="#141414" stroke-width="2.00" fill="none"/>
</svg>