<?xml version="1.0" encoding="UTF-8"?>
<!-- Do not edit this file with editors other than draw.io -->
<!DOCTYPE svg PUBLIC "-//W3C//DTD SVG 1.1//EN" "http://www.w3.org/Graphics/SVG/1.1/DTD/svg11.dtd">
<svg xmlns="http://www.w3.org/2000/svg" style="background: transparent; background-color: transparent; " xmlns:xlink="http://www.w3.org/1999/xlink" version="1.1" width="67px" height="107px" viewBox="0 0 67 107" content="&lt;mxfile host=&quot;Electron&quot; agent=&quot;Mozilla/5.0 (Windows NT 10.0; Win64; x64) AppleWebKit/537.36 (KHTML, like Gecko) draw.io/29.6.6 Chrome/144.0.7559.236 Electron/40.8.4 Safari/537.36&quot; version=&quot;29.6.6&quot;&gt;&#10;  &lt;diagram name=&quot;Page-1&quot; id=&quot;KoF04IBD5nGJ-qoLNlYf&quot;&gt;&#10;    &lt;mxGraphModel dx=&quot;856&quot; dy=&quot;946&quot; grid=&quot;1&quot; gridSize=&quot;10&quot; guides=&quot;1&quot; tooltips=&quot;1&quot; connect=&quot;1&quot; arrows=&quot;1&quot; fold=&quot;1&quot; page=&quot;1&quot; pageScale=&quot;1&quot; pageWidth=&quot;850&quot; pageHeight=&quot;1100&quot; math=&quot;0&quot; shadow=&quot;0&quot;&gt;&#10;      &lt;root&gt;&#10;        &lt;mxCell id=&quot;0&quot; /&gt;&#10;        &lt;mxCell id=&quot;1&quot; parent=&quot;0&quot; /&gt;&#10;        &lt;mxCell id=&quot;2Zdqz3lLYbPKSC03os5W-2&quot; parent=&quot;1&quot; style=&quot;verticalLabelPosition=bottom;outlineConnect=0;align=center;dashed=0;html=1;verticalAlign=top;shape=mxgraph.pid.misc.air_separator;&quot; value=&quot;&quot; vertex=&quot;1&quot;&gt;&#10;          &lt;mxGeometry height=&quot;106&quot; width=&quot;65.5&quot; x=&quot;300&quot; y=&quot;240&quot; as=&quot;geometry&quot; /&gt;&#10;        &lt;/mxCell&gt;&#10;      &lt;/root&gt;&#10;    &lt;/mxGraphModel&gt;&#10;  &lt;/diagram&gt;&#10;&lt;/mxfile&gt;&#10;"><defs/><g><g data-cell-id="0"><g data-cell-id="1"><g data-cell-id="2Zdqz3lLYbPKSC03os5W-2"><g transform="translate(0.5,0.5)"><rect x="28" y="0" width="10" height="106" fill="none" stroke="#ffffff" pointer-events="all" style="fill: none); stroke: #ffffff, rgb(255, 255, 255));"/><path d="M 53 23 L 61.5 23 M 61.5 13 L 61.5 33 M 65.5 13 L 65.5 33 M 13 83 L 4.5 83 M 4.5 73 L 4.5 93 M 0 73 L 0 93 M 53 13 L 53 93 C 53 97.25 44.05 100.69 33 100.69 C 21.95 100.69 13 97.25 13 93 L 13 13 C 13 8.75 21.95 5.31 33 5.31 C 44.05 5.31 53 8.75 53 13 Z" fill="none" stroke="#ffffff" stroke-miterlimit="10" pointer-events="all" style="fill: none); stroke: #ffffff, rgb(255, 255, 255));"/></g></g></g></g></g></svg>