<?xml version="1.0" encoding="UTF-8"?>
<!-- Do not edit this file with editors other than draw.io -->
<!DOCTYPE svg PUBLIC "-//W3C//DTD SVG 1.1//EN" "http://www.w3.org/Graphics/SVG/1.1/DTD/svg11.dtd">
<svg xmlns="http://www.w3.org/2000/svg" style="background-color: transparent;" xmlns:xlink="http://www.w3.org/1999/xlink" version="1.1" width="184px" height="363px" viewBox="0 0 184 363"><defs/><g><g><g><g><g transform="translate(0.5,0.5)"><rect x="101" y="321" width="40" height="40" fill="none" stroke="none"/><ellipse cx="121" cy="341" rx="15" ry="15" fill="none" stroke="#ffffff" stroke-width="3"/><path d="M 106 341 L 111 341 L 116 333.5 L 126 348.5 L 131 341 L 136 341 M 141 321 L 101 361 M 136 323.25 L 141 321 L 138.75 326 L 138.5 323.5 Z" fill="none" stroke="#ffffff" stroke-width="3" stroke-miterlimit="10"/></g></g><g><g transform="translate(0.5,0.5)"><rect x="101" y="1" width="40" height="40" fill="none" stroke="none"/><ellipse cx="121" cy="21" rx="15" ry="15" fill="none" stroke="#ffffff" stroke-width="3"/><path d="M 106 21 L 111 21 L 116 13.5 L 126 28.5 L 131 21 L 136 21 M 141 1 L 101 41" fill="none" stroke="#ffffff" stroke-width="3" stroke-miterlimit="10"/><path d="M 103.25 36 L 101 41 L 106 38.75 L 103.5 38.5 Z" fill="none" stroke="#ffffff" stroke-width="3" stroke-miterlimit="10"/></g></g><g><g transform="translate(0.5,0.5)"><path d="M 1 76 C 1 67.72 18.91 61 41 61 C 63.09 61 81 67.72 81 76 L 81 286 C 81 294.28 63.09 301 41 301 C 18.91 301 1 294.28 1 286 Z" fill="none" stroke="#ffffff" stroke-width="3" stroke-miterlimit="10"/><path d="M 1 93 L 81 93 M 1 109 L 81 109 M 1 125 L 81 125 M 1 141 L 81 141 M 1 157 L 81 157 M 1 173 L 81 173 M 1 189 L 81 189 M 1 205 L 81 205 M 1 221 L 81 221 M 1 237 L 81 237 M 1 253 L 81 253 M 1 269 L 81 269" fill="none" stroke="#ffffff" stroke-width="3" stroke-miterlimit="10" stroke-dasharray="9 9"/></g></g><g><g transform="translate(0.5,0.5)"><path d="M 41 21 L 105.96 21" fill="none" stroke="#ffffff" stroke-width="3" stroke-miterlimit="10"/></g></g><g><g transform="translate(0.5,0.5)"><path d="M 41 61 L 41 21" fill="none" stroke="#ffffff" stroke-width="3" stroke-miterlimit="10"/></g></g><g><g transform="translate(0.5,0.5)"><path d="M 181 21 L 136.04 21" fill="none" stroke="#ffffff" stroke-width="3" stroke-miterlimit="10"/></g></g><g><g transform="translate(0.5,0.5)"><path d="M 121 81 L 121 36.04" fill="none" stroke="#ffffff" stroke-width="3" stroke-miterlimit="10"/></g></g><g><g transform="translate(0.5,0.5)"><path d="M 81 81 L 121 81" fill="none" stroke="#ffffff" stroke-width="3" stroke-miterlimit="10"/></g></g><g><g transform="translate(0.5,0.5)"><path d="M 41 301 L 41 341" fill="none" stroke="#ffffff" stroke-width="3" stroke-miterlimit="10"/></g></g><g><g transform="translate(0.5,0.5)"><path d="M 41 341 L 105.96 341" fill="none" stroke="#ffffff" stroke-width="3" stroke-miterlimit="10"/></g></g><g><g transform="translate(0.5,0.5)"><path d="M 136.04 341 L 181 341" fill="none" stroke="#ffffff" stroke-width="3" stroke-miterlimit="10"/></g></g><g><g transform="translate(0.5,0.5)"><path d="M 121 325.96 L 121 261" fill="none" stroke="#ffffff" stroke-width="3" stroke-miterlimit="10"/></g></g><g><g transform="translate(0.5,0.5)"><path d="M 121 261 L 81 260.92" fill="none" stroke="#ffffff" stroke-width="3" stroke-miterlimit="10"/></g></g></g></g></g></svg>