<svg xmlns="http://www.w3.org/2000/svg"
     viewBox="-3.000 -3.000 166.000 81.000"
     width="96" height="96">
  <path d="M 0.0000 0.0000 L 10.0000 0.0000 L 10.0000 65.0000 L 150.0000 65.0000 L 150.0000 0.0000 L 160.0000 0.0000 L 160.0000 75.0000 L 0.0000 75.0000 Z M 0.0000 5.0000 L 5.0000 0.0000 M 0.0000 15.0000 L 10.0000 5.0000 M 0.0000 25.0000 L 10.0000 15.0000 M 0.0000 35.0000 L 10.0000 25.0000 M 0.0000 45.0000 L 10.0000 35.0000 M 0.0000 55.0000 L 10.0000 45.0000 M 40.0000 75.0000 L 50.0000 65.0000 M 0.0000 65.0000 L 10.0000 55.0000 M 0.0000 75.0000 L 10.0000 65.0000 M 10.0000 75.0000 L 20.0000 65.0000 M 20.0000 75.0000 L 30.0000 65.0000 M 30.0000 75.0000 L 40.0000 65.0000 M 50.0000 75.0000 L 60.0000 65.0000 M 60.0000 75.0000 L 70.0000 65.0000 M 70.0000 75.0000 L 80.0000 65.0000 M 80.0000 75.0000 L 90.0000 65.0000 M 90.0000 75.0000 L 100.0000 65.0000 M 110.0000 75.0000 L 120.0000 65.0000 M 120.0000 75.0000 L 130.0000 65.0000 M 130.0000 75.0000 L 140.0000 65.0000 M 140.0000 75.0000 L 160.0000 55.0000 M 150.0000 75.0000 L 160.0000 65.0000 M 150.0000 55.0000 L 160.0000 45.0000 M 150.0000 45.0000 L 160.0000 35.0000 M 150.0000 35.0000 L 160.0000 25.0000 M 150.0000 25.0000 L 160.0000 15.0000 M 150.0000 15.0000 L 160.0000 5.0000 M 150.0000 5.0000 L 155.0000 0.0000 M 100.0000 75.0000 L 110.0000 65.0000" fill="white" stroke="#141414" stroke-width="2.00"/>
</svg>