<svg xmlns="http://www.w3.org/2000/svg"
     viewBox="-3.000 -3.000 106.170 180.500"
     width="96" height="96">
  <path d="M 10.0800 100.0000 L 0.0800 110.0000 L 0.0800 145.0000 A 50.0000 30.0000 0.0 0 0 40.0800 174.5000 L 46.0800 165.0000 Z M 90.0800 100.0000 L 100.0800 110.0000 L 100.0800 145.0000 A 50.0000 30.0000 0.0 0 1 60.0800 174.5000 L 54.0800 165.0000 Z" fill="white" stroke="#141414" stroke-width="2.00"/>
  <path d="M 10.0800 50.0000 A 40.0000 15.0000 0.0 1 1 90.0800 50.0000 L 90.0800 140.0000 A 40.0000 25.0000 0.0 1 1 10.0800 140.0000 Z" fill="none" stroke="#141414" stroke-width="2.00"/>
  <rect x="45.0800" y="0.0000" width="10.0000" height="20.0000" fill="none" stroke="#141414" stroke-width="2.00"/>
  <path d="M 43.0800 3.0000 L 57.0800 3.0000 M 43.0800 17.0000 L 57.0800 17.0000 M 50.0800 20.0000 L 50.0800 150.5000" stroke="#141414" stroke-width="2.00" fill="none"/>
  <ellipse cx="40.0800" cy="150.0000" rx="10.0000" ry="3.0000" stroke="#141414" stroke-width="2.00" fill="none"/>
  <ellipse cx="60.0800" cy="150.0000" rx="10.0000" ry="3.0000" stroke="#141414" stroke-width="2.00" fill="none"/>
</svg>