<svg xmlns="http://www.w3.org/2000/svg"
     viewBox="-3.000 -3.000 57.000 101.380"
     width="96" height="96">
  <path d="M 40.0000 7.6900 L 40.0000 87.6900 A 13.0000 5.0000 0.0 0 1 0.0000 87.6900 L 0.0000 7.6900 A 13.0000 5.0000 0.0 0 1 40.0000 7.6900 Z" fill="white" stroke="#141414" stroke-width="2.00"/>
  <path d="M 0.0000 7.6900 L 40.0000 7.6900 M 0.0000 87.6900 L 40.0000 87.6900 M 0.0000 17.6900 L 40.0000 17.6900 M 0.0000 27.6900 L 40.0000 27.6900 M 0.0000 17.6900 L 10.0000 27.6900 L 20.0000 17.6900 L 30.0000 27.6900 L 40.0000 17.6900 M 48.0000 34.6900 L 48.0000 52.6900 M 51.0000 34.6900 L 51.0000 52.6900 M 0.0000 27.6900 L 10.0000 17.6900 L 20.0000 27.6900 L 30.0000 17.6900 L 40.0000 27.6900" stroke="#141414" stroke-width="2.00" fill="none"/>
  <rect x="40.0000" y="37.5000" width="8.0000" height="12.0000" fill="none" stroke="#141414" stroke-width="2.00"/>
</svg>