<svg xmlns="http://www.w3.org/2000/svg"
     viewBox="-3.000 -3.000 56.000 102.400"
     width="96" height="96">
  <path d="M 31.0000 2.4000 L 31.0000 27.4000 A 5.0000 2.0000 0.0 0 1 19.0000 27.4000 L 19.0000 2.4000 A 5.0000 2.0000 0.0 0 1 31.0000 2.4000 Z" fill="white" stroke="#141414" stroke-width="2.00"/>
  <path d="M 26.0000 32.4000 L 50.0000 32.4000 L 50.0000 77.4000 L 25.0000 96.4000 L 0.0000 77.4000 L 0.0000 32.4000 L 24.0000 32.4000 M 19.0000 2.4000 L 31.0000 2.4000 M 19.0000 27.4000 L 31.0000 27.4000 M 24.0000 29.4000 L 24.0000 56.9000 M 26.0000 29.4000 L 26.0000 56.9000 M 0.0000 77.4000 L 50.0000 77.4000" fill="none" stroke="#141414" stroke-width="2.00"/>
  <ellipse cx="30.0000" cy="57.4000" rx="5.0000" ry="1.0000" stroke="#141414" stroke-width="2.00" fill="none"/>
  <ellipse cx="20.0000" cy="57.4000" rx="5.0000" ry="1.0000" stroke="#141414" stroke-width="2.00" fill="none"/>
</svg>