<svg xmlns="http://www.w3.org/2000/svg"
     viewBox="-3.000 -3.000 126.000 97.000"
     width="96" height="96">
  <rect x="0.0000" y="81.0000" width="120.0000" height="10.0000" fill="white" stroke="#141414" stroke-width="2.00"/>
  <rect x="80.0000" y="3.0000" width="12.0000" height="8.0000" fill="none" stroke="#141414" stroke-width="2.00"/>
  <rect x="10.0000" y="11.0000" width="100.0000" height="70.0000" fill="none" stroke="#141414" stroke-width="2.00"/>
  <path d="M 77.0000 3.0000 L 95.0000 3.0000 M 77.0000 0.0000 L 95.0000 0.0000 M 40.0000 91.0000 L 50.0000 81.0000 M 0.0000 91.0000 L 10.0000 81.0000 M 10.0000 91.0000 L 20.0000 81.0000 M 20.0000 91.0000 L 30.0000 81.0000 M 30.0000 91.0000 L 40.0000 81.0000 M 50.0000 91.0000 L 60.0000 81.0000 M 60.0000 91.0000 L 70.0000 81.0000 M 70.0000 91.0000 L 80.0000 81.0000 M 80.0000 91.0000 L 90.0000 81.0000 M 90.0000 91.0000 L 100.0000 81.0000 M 110.0000 91.0000 L 120.0000 81.0000 M 100.0000 91.0000 L 110.0000 81.0000" stroke="#141414" stroke-width="2.00" fill="none"/>
</svg>