<svg xmlns="http://www.w3.org/2000/svg"
     viewBox="-3.000 -3.000 20.000 103.000"
     width="96" height="96">
  <path d="M 14.0000 3.5000 L 14.0000 93.5000 A 5.0000 2.5000 0.0 0 1 0.0000 93.5000 L 0.0000 3.5000 A 5.0000 2.5000 0.0 0 1 14.0000 3.5000 Z M 0.0000 3.5000 L 14.0000 3.5000 M 0.0000 93.5000 L 14.0000 93.5000 M 0.0000 43.5000 L 14.0000 43.5000 M 0.0000 53.5000 L 14.0000 53.5000 M 0.0000 18.5000 L 14.0000 18.5000 M 0.0000 78.5000 L 14.0000 78.5000 M 14.0000 18.5000 L 0.0000 43.5000 M 14.0000 43.5000 L 0.0000 18.5000 M 14.0000 53.5000 L 0.0000 78.5000 M 14.0000 78.5000 L 0.0000 53.5000" fill="white" stroke="#141414" stroke-width="2.00"/>
</svg>