<svg xmlns="http://www.w3.org/2000/svg"
     viewBox="-3.000 -3.000 58.000 101.380"
     width="96" height="96">
  <path d="M 46.0000 7.6900 L 46.0000 87.6900 A 13.0000 5.0000 0.0 0 1 6.0000 87.6900 L 6.0000 7.6900 A 13.0000 5.0000 0.0 0 1 46.0000 7.6900 Z" fill="white" stroke="#141414" stroke-width="2.00"/>
  <path d="M 6.0000 7.6900 L 46.0000 7.6900 M 6.0000 87.6900 L 46.0000 87.6900 M 0.0000 12.6900 L 0.0000 82.6900 M 52.0000 12.6900 L 52.0000 82.6900 M 6.0000 12.6900 L 0.0000 18.6900 M 6.0000 17.6900 L 0.0000 23.6900 M 6.0000 22.6900 L 0.0000 28.6900 M 6.0000 27.6900 L 0.0000 33.6900 M 6.0000 32.6900 L 0.0000 38.6900 M 6.0000 37.6900 L 0.0000 43.6900 M 6.0000 42.6900 L 0.0000 48.6900 M 6.0000 47.6900 L 0.0000 53.6900 M 6.0000 52.6900 L 0.0000 58.6900 M 6.0000 57.6900 L 0.0000 63.6900 M 6.0000 62.6900 L 0.0000 68.6900 M 6.0000 67.6900 L 0.0000 73.6900 M 6.0000 72.6900 L 0.0000 78.6900 M 6.0000 77.6900 L 1.0000 82.6900 M 52.0000 12.6900 L 46.0000 18.6900 M 52.0000 17.6900 L 46.0000 23.6900 M 52.0000 22.6900 L 46.0000 28.6900 M 52.0000 27.6900 L 46.0000 33.6900 M 52.0000 32.6900 L 46.0000 38.6900 M 52.0000 37.6900 L 46.0000 43.6900 M 52.0000 42.6900 L 46.0000 48.6900 M 52.0000 47.6900 L 46.0000 53.6900 M 52.0000 52.6900 L 46.0000 58.6900 M 52.0000 57.6900 L 46.0000 63.6900 M 52.0000 62.6900 L 46.0000 68.6900 M 52.0000 67.6900 L 46.0000 73.6900 M 52.0000 72.6900 L 46.0000 78.6900 M 52.0000 77.6900 L 47.0000 82.6900" stroke="#141414" stroke-width="2.00" fill="none"/>
</svg>