<svg xmlns="http://www.w3.org/2000/svg"
     viewBox="-3.000 -3.000 44.000 106.000"
     width="96" height="96">
  <rect x="0.0000" y="25.0000" width="4.0000" height="50.0000" fill="white" stroke="#141414" stroke-width="2.00"/>
  <rect x="34.0000" y="25.0000" width="4.0000" height="50.0000" fill="#000000" stroke="#141414" stroke-width="2.00"/>
  <rect x="0.0000" y="0.0000" width="10.0000" height="10.0000" stroke="#141414" stroke-width="2.00" fill="none"/>
  <path d="M 4.0000 0.0000 L 4.0000 35.0000 L 34.0000 35.0000 L 34.0000 0.0000 M 4.0000 100.0000 L 4.0000 65.0000 L 34.0000 65.0000 L 34.0000 100.0000" fill="white" stroke="#141414" stroke-width="2.00"/>
  <path d="M 4.0000 10.0000 L 14.0000 0.0000 M 4.0000 20.0000 L 24.0000 0.0000 M 4.0000 30.0000 L 34.0000 0.0000 M 9.0000 35.0000 L 34.0000 10.0000 M 19.0000 35.0000 L 34.0000 20.0000 M 29.0000 35.0000 L 34.0000 30.0000 M 4.0000 75.0000 L 14.0000 65.0000 M 4.0000 85.0000 L 24.0000 65.0000 M 4.0000 95.0000 L 34.0000 65.0000 M 9.0000 100.0000 L 34.0000 75.0000 M 19.0000 100.0000 L 34.0000 85.0000 M 29.0000 100.0000 L 34.0000 95.0000" stroke="#141414" stroke-width="2.00" fill="none"/>
</svg>