<svg xmlns="http://www.w3.org/2000/svg" viewBox="0 0 48 48" width="48" height="48">
  <defs>
    <linearGradient id="abg" x1="0" y1="0" x2="1" y2="0">
      <stop offset="0%" stop-color="#4090d0"/>
      <stop offset="50%" stop-color="#70b8f0"/>
      <stop offset="100%" stop-color="#1060a0"/>
    </linearGradient>
  </defs>
  <ellipse cx="24" cy="7" rx="10" ry="3.5" fill="#3080c8" stroke="#1060a0" stroke-width="1.5"/>
  <rect x="14" y="7" width="20" height="36" fill="url(#abg)" stroke="#1060a0" stroke-width="1.5"/>
  <ellipse cx="24" cy="43" rx="10" ry="3.5" fill="#1a60a8" stroke="#1060a0" stroke-width="1.5"/>
  <!-- packing fill (crosshatch) -->
  <rect x="15" y="12" width="18" height="26" fill="#1a4a80" opacity="0.5"/>
  <line x1="15" y1="14" x2="33" y2="20" stroke="white" stroke-width="0.8" opacity="0.4"/>
  <line x1="33" y1="14" x2="15" y2="20" stroke="white" stroke-width="0.8" opacity="0.4"/>
  <line x1="15" y1="21" x2="33" y2="27" stroke="white" stroke-width="0.8" opacity="0.4"/>
  <line x1="33" y1="21" x2="15" y2="27" stroke="white" stroke-width="0.8" opacity="0.4"/>
  <line x1="15" y1="28" x2="33" y2="34" stroke="white" stroke-width="0.8" opacity="0.4"/>
  <line x1="33" y1="28" x2="15" y2="34" stroke="white" stroke-width="0.8" opacity="0.4"/>
  <!-- highlight stripe -->
  <rect x="15" y="8" width="5" height="34" rx="2.5" fill="white" opacity="0.12"/>
  <!-- nozzles -->
  <rect x="4" y="8" width="10" height="4" rx="2" fill="#5aafe8" stroke="#1060a0" stroke-width="1"/>
  <rect x="34" y="8" width="10" height="4" rx="2" fill="#5cb85c" stroke="#2a7a2a" stroke-width="1"/>
  <rect x="4" y="36" width="10" height="4" rx="2" fill="#5cb85c" stroke="#2a7a2a" stroke-width="1"/>
  <rect x="34" y="36" width="10" height="4" rx="2" fill="#5aafe8" stroke="#1060a0" stroke-width="1"/>
</svg>
