<svg xmlns="http://www.w3.org/2000/svg" viewBox="0 0 48 48" width="48" height="48">
  <defs>
    <linearGradient id="adg" x1="0" y1="0" x2="1" y2="0">
      <stop offset="0%" stop-color="#5090d0"/>
      <stop offset="100%" stop-color="#1050a0"/>
    </linearGradient>
    <linearGradient id="adg2" x1="0" y1="0" x2="1" y2="0">
      <stop offset="0%" stop-color="#3070b0"/>
      <stop offset="100%" stop-color="#0a3070"/>
    </linearGradient>
  </defs>
  <!-- Vessel A -->
  <ellipse cx="13" cy="10" rx="8" ry="3" fill="#3070b8" stroke="#083070" stroke-width="1.2"/>
  <rect x="5" y="10" width="16" height="28" fill="url(#adg)" stroke="#083070" stroke-width="1.5"/>
  <ellipse cx="13" cy="38" rx="8" ry="3" fill="#1050a0" stroke="#083070" stroke-width="1.2"/>
  <!-- Vessel A - adsorbent fill -->
  <rect x="6" y="13" width="14" height="22" fill="#0a2848" opacity="0.7"/>
  <circle cx="10" cy="18" r="2" fill="#f07820" opacity="0.7"/>
  <circle cx="16" cy="18" r="2" fill="#f07820" opacity="0.7"/>
  <circle cx="10" cy="24" r="2" fill="#f07820" opacity="0.7"/>
  <circle cx="16" cy="24" r="2" fill="#f07820" opacity="0.7"/>
  <circle cx="10" cy="30" r="2" fill="#f07820" opacity="0.7"/>
  <circle cx="16" cy="30" r="2" fill="#f07820" opacity="0.7"/>
  <rect x="6" y="11" width="5" height="9" rx="2.5" fill="white" opacity="0.12"/>
  <!-- Vessel B -->
  <ellipse cx="35" cy="10" rx="8" ry="3" fill="#3070b8" stroke="#083070" stroke-width="1.2"/>
  <rect x="27" y="10" width="16" height="28" fill="url(#adg2)" stroke="#083070" stroke-width="1.5"/>
  <ellipse cx="35" cy="38" rx="8" ry="3" fill="#1050a0" stroke="#083070" stroke-width="1.2"/>
  <rect x="28" y="13" width="14" height="22" fill="#0a2040" opacity="0.7"/>
  <circle cx="32" cy="18" r="2" fill="#f07820" opacity="0.5"/>
  <circle cx="38" cy="18" r="2" fill="#f07820" opacity="0.5"/>
  <circle cx="32" cy="24" r="2" fill="#f07820" opacity="0.5"/>
  <circle cx="38" cy="24" r="2" fill="#f07820" opacity="0.5"/>
  <circle cx="32" cy="30" r="2" fill="#f07820" opacity="0.5"/>
  <circle cx="38" cy="30" r="2" fill="#f07820" opacity="0.5"/>
  <rect x="28" y="11" width="5" height="9" rx="2.5" fill="white" opacity="0.08"/>
  <!-- connecting pipe at top -->
  <rect x="21" y="8" width="6" height="4" rx="2" fill="#2060a0" stroke="#083070" stroke-width="1"/>
  <!-- product top-right -->
  <rect x="31" y="4" width="8" height="6" rx="3" fill="#5cb85c" stroke="#2a7a2a" stroke-width="1"/>
  <!-- feed bottom-left -->
  <rect x="9" y="40" width="8" height="6" rx="3" fill="#5aafe8" stroke="#083070" stroke-width="1"/>
  <!-- waste bottom-right -->
  <rect x="31" y="40" width="8" height="6" rx="3" fill="#8090a0" stroke="#404858" stroke-width="1"/>
</svg>
