<svg xmlns="http://www.w3.org/2000/svg"
     viewBox="-3.000 -3.000 162.690 121.500"
     width="96" height="96">
  <path d="M 149.0000 12.5000 A 5.0000 13.0000 0.0 1 1 149.0000 52.5000 L 19.0000 52.5000 A 5.0000 13.0000 0.0 1 1 19.0000 12.5000 Z" fill="white" stroke="#141414" stroke-width="2.00"/>
  <path d="M 149.0000 72.5000 A 5.0000 13.0000 0.0 1 1 149.0000 112.5000 L 19.0000 112.5000 A 5.0000 13.0000 0.0 1 1 19.0000 72.5000 Z" fill="none" stroke="#141414" stroke-width="2.00"/>
  <path d="M 4.0000 79.5000 L 13.0000 79.5000 M 4.0000 105.5000 L 13.0000 105.5000 M 4.0000 69.5000 L 4.0000 89.5000 M 0.0000 69.5000 L 0.0000 89.5000 M 4.0000 95.5000 L 4.0000 115.5000 M 0.0000 95.5000 L 0.0000 115.5000 M 139.0000 12.5000 L 139.0000 4.0000 M 129.0000 4.0000 L 149.0000 4.0000 M 129.0000 0.0000 L 149.0000 0.0000 M 29.0000 12.5000 L 29.0000 4.0000 M 19.0000 4.0000 L 39.0000 4.0000 M 19.0000 0.0000 L 39.0000 0.0000" stroke="#141414" stroke-width="2.00" fill="none"/>
  <rect x="34.0000" y="52.5000" width="10.0000" height="20.0000" fill="none" stroke="#141414" stroke-width="2.00"/>
  <rect x="119.0000" y="52.5000" width="10.0000" height="20.0000" fill="none" stroke="#141414" stroke-width="2.00"/>
</svg>