<svg xmlns="http://www.w3.org/2000/svg"
     viewBox="-3.000 -3.000 106.000 126.000"
     width="96" height="96">
  <path d="M 0.0000 120.0000 L 0.0000 100.0000 L 25.0000 0.0000 L 75.0000 0.0000 L 100.0000 100.0000 L 100.0000 120.0000 Z" fill="white" stroke="#141414" stroke-width="2.00"/>
  <path d="M 100.0000 100.0000 L 0.0000 100.0000 M 0.0000 110.0000 L 100.0000 110.0000 M 50.0000 105.0000 L 50.0000 115.0000 M 37.5000 105.0000 L 37.5000 115.0000 M 25.0000 105.0000 L 25.0000 115.0000 M 12.5000 105.0000 L 12.5000 115.0000 M 62.5000 105.0000 L 62.5000 115.0000 M 75.0000 105.0000 L 75.0000 115.0000 M 87.5000 105.0000 L 87.5000 115.0000 M 42.0000 12.5000 L 36.0000 31.0000 M 58.0000 12.5000 L 64.0000 31.0000" stroke="#141414" stroke-width="2.00" fill="none"/>
  <ellipse cx="50.0000" cy="25.0000" rx="15.0000" ry="15.0000" stroke="#141414" stroke-width="2.00" fill="none"/>
</svg>