<svg xmlns="http://www.w3.org/2000/svg"
     viewBox="-3.000 -3.000 106.000 46.000"
     width="96" height="96">
  <path d="M 20.0000 0.0000 L 80.0000 0.0000 L 88.5000 20.0000 L 80.0000 40.0000 L 20.0000 40.0000 L 11.5000 20.0000 Z" fill="white" stroke="#141414" stroke-width="2.00"/>
  <path d="M 0.0000 10.0000 L 0.0000 30.0000 M 3.0000 10.0000 L 3.0000 30.0000 M 3.0000 20.0000 L 11.5000 20.0000 M 100.0000 10.0000 L 100.0000 30.0000 M 97.0000 10.0000 L 97.0000 30.0000 M 97.0000 20.0000 L 88.5000 20.0000 M 20.0000 0.0000 L 20.0000 40.0000 M 30.0000 0.0000 L 30.0000 40.0000 M 40.0000 0.0000 L 40.0000 40.0000 M 50.0000 0.0000 L 50.0000 40.0000 M 60.0000 0.0000 L 60.0000 40.0000 M 70.0000 0.0000 L 70.0000 40.0000 M 80.0000 0.0000 L 80.0000 40.0000" stroke="#141414" stroke-width="2.00" fill="none"/>
</svg>