<svg xmlns="http://www.w3.org/2000/svg"
     viewBox="-3.000 -3.000 86.000 106.000"
     width="96" height="96">
  <path d="M 80.0000 0.0000 L 80.0000 60.0000 A 40.0000 40.0000 0.0 1 1 0.0000 60.0000 L 0.0000 0.0000 Z" fill="white" stroke="#141414" stroke-width="2.00"/>
  <path d="M 43.0900 60.6400 A 15.0000 3.0000 90.13 0 1 40.0600 75.6300 A 15.0000 3.0000 90.13 0 1 37.0900 60.6300 A 15.0000 3.0000 90.13 0 1 40.1300 45.6300 A 15.0000 3.0000 90.13 0 1 43.0900 60.6400 Z M 53.6000 37.9400 A 15.0000 3.0000 139.61 0 1 40.2300 45.3800 A 15.0000 3.0000 139.61 0 1 49.7100 33.3800 A 15.0000 3.0000 139.61 0 1 63.0800 25.9400 A 15.0000 3.0000 139.61 0 1 53.6000 37.9400 Z M 30.4200 33.3200 A 15.0000 3.0000 40.22 0 1 39.9400 45.2900 A 15.0000 3.0000 40.22 0 1 26.5500 37.9000 A 15.0000 3.0000 40.22 0 1 17.0300 25.9200 A 15.0000 3.0000 40.22 0 1 30.4200 33.3200 Z" stroke="#141414" stroke-width="2.00" fill="none"/>
</svg>