<svg xmlns="http://www.w3.org/2000/svg"
     viewBox="-3.000 -3.000 86.000 106.000"
     width="96" height="96">
  <rect x="0.0000" y="0.0000" width="80.0000" height="100.0000" fill="white" stroke="#141414" stroke-width="2.00"/>
  <path d="M 5.0000 60.0000 L 75.0000 60.0000 M 75.0000 80.0000 L 20.0000 80.0000 M 15.0000 60.0000 L 15.0000 30.0000 L 40.0000 30.0000 L 40.0000 35.0000 L 65.0000 35.0000 L 65.0000 60.0000 M 15.0000 55.0000 L 65.0000 55.0000 M 15.0000 50.0000 L 65.0000 50.0000 M 15.0000 45.0000 L 65.0000 45.0000 M 15.0000 40.0000 L 65.0000 40.0000 M 15.0000 35.0000 L 40.0000 35.0000 M 27.5000 35.0000 L 27.5000 40.0000 M 27.5000 45.0000 L 27.5000 50.0000 M 27.5000 55.0000 L 27.5000 60.0000 M 40.0000 40.0000 L 40.0000 45.0000 M 40.0000 50.0000 L 40.0000 55.0000 M 52.5000 35.0000 L 52.5000 40.0000 M 52.5000 45.0000 L 52.5000 50.0000 M 52.5000 55.0000 L 52.5000 60.0000" stroke="#141414" stroke-width="2.00" fill="none"/>
  <path d="M 20.0000 77.0000 L 20.0000 83.0000 L 9.0000 80.0000 Z" fill="#141414" stroke="#141414" stroke-width="2.00"/>
</svg>