<svg xmlns="http://www.w3.org/2000/svg"
     viewBox="-3.000 -3.000 86.000 106.000"
     width="96" height="96">
  <rect x="0.0000" y="0.0000" width="80.0000" height="100.0000" fill="white" stroke="#141414" stroke-width="2.00"/>
  <path d="M 5.0000 80.0000 L 75.0000 80.0000 M 15.0000 70.0000 L 65.0000 70.0000 M 15.0000 65.0000 L 65.0000 65.0000 M 15.0000 60.0000 L 65.0000 60.0000 M 15.0000 55.0000 L 65.0000 55.0000 M 27.3000 55.4000 L 27.3000 60.4000 M 27.3000 65.4000 L 27.3000 70.4000 M 27.3000 75.4000 L 27.3000 80.4000 M 39.8000 60.4000 L 39.8000 65.4000 M 39.8000 70.4000 L 39.8000 75.4000 M 52.3000 55.4000 L 52.3000 60.4000 M 52.3000 65.4000 L 52.3000 70.4000 M 52.3000 75.4000 L 52.3000 80.4000 M 15.0000 45.0000 L 65.0000 45.0000 M 15.0000 50.0000 L 65.0000 50.0000 M 40.0000 50.0000 L 40.0000 55.0000 M 40.0000 40.0000 L 40.0000 45.0000 M 27.5000 45.0000 L 27.5000 50.0000 M 52.5000 45.0000 L 52.5000 50.0000" stroke="#141414" stroke-width="2.00" fill="none"/>
  <rect x="5.0000" y="15.0000" width="70.0000" height="60.0000" stroke="#141414" stroke-width="2.00" fill="none"/>
  <rect x="15.0000" y="40.0000" width="50.0000" height="40.0000" stroke="#141414" stroke-width="2.00" fill="none"/>
</svg>