<svg xmlns="http://www.w3.org/2000/svg"
     viewBox="-3.000 -3.000 86.000 186.000"
     width="96" height="96">
  <path d="M 0.0000 0.0000 L 80.0000 0.0000 L 80.0000 140.0000 L 40.0000 180.0000 L 0.0000 140.0000 Z" fill="white" stroke="#141414" stroke-width="2.00"/>
  <ellipse cx="40.0000" cy="25.0000" rx="10.0000" ry="10.0000" stroke="#141414" stroke-width="2.00" fill="none"/>
  <ellipse cx="40.0000" cy="125.0000" rx="10.0000" ry="10.0000" stroke="#141414" stroke-width="2.00" fill="none"/>
  <path d="M 30.0000 25.0000 L 30.0000 125.0000 M 50.0000 25.0000 L 50.0000 125.0000 M 50.0000 40.0000 A 20.0000 20.0000 0.0 0 1 70.0000 60.0000 M 50.0000 85.0000 A 20.0000 20.0000 0.0 0 1 70.0000 105.0000 M 30.0000 60.0000 A 20.0000 20.0000 0.0 0 1 10.0000 40.0000 M 30.0000 105.0000 A 20.0000 20.0000 0.0 0 1 10.0000 85.0000" stroke="#141414" stroke-width="2.00" fill="none" stroke-dasharray="2 2"/>
</svg>