<svg xmlns="http://www.w3.org/2000/svg" viewBox="0 0 48 48" width="48" height="48">
  <rect x="16" y="6" width="16" height="36" rx="4" fill="#2a3548" stroke="#b0c4de" stroke-width="2"/>
  <line x1="16" y1="14" x2="32" y2="14" stroke="#6e7a90" stroke-width="1.2"/>
  <line x1="16" y1="21" x2="32" y2="21" stroke="#6e7a90" stroke-width="1.2"/>
  <line x1="16" y1="28" x2="32" y2="28" stroke="#6e7a90" stroke-width="1.2"/>
  <line x1="16" y1="35" x2="32" y2="35" stroke="#6e7a90" stroke-width="1.2"/>
  <line x1="24" y1="6" x2="24" y2="3" stroke="#3a8fd1" stroke-width="2"/>
  <polygon points="24,3 21,7 27,7" fill="#3a8fd1"/>
  <line x1="24" y1="42" x2="24" y2="45" stroke="#3a8fd1" stroke-width="2"/>
  <polygon points="24,45 21,41 27,41" fill="#3a8fd1"/>
  <line x1="4" y1="24" x2="16" y2="24" stroke="#3a8fd1" stroke-width="2"/>
  <polygon points="16,24 12,22 12,26" fill="#3a8fd1"/>
  <line x1="32" y1="18" x2="44" y2="18" stroke="#3a8fd1" stroke-width="2"/>
  <polygon points="44,18 40,16 40,20" fill="#3a8fd1"/>
</svg>
